<?xml version="1.0" encoding="UTF-8"?> <svg xmlns="http://www.w3.org/2000/svg" xmlns:xlink="http://www.w3.org/1999/xlink" preserveAspectRatio="xMidYMid" width="220" height="68" viewBox="0 0 220 68"><defs><style> .cls-1 { fill: #be1d23; fill-rule: evenodd; } </style></defs><path d="M217.003,11.461 C217.003,7.479 214.077,5.159 210.813,5.159 C207.526,5.159 204.595,7.479 204.595,11.461 C204.595,15.446 207.526,17.764 210.813,17.764 C214.077,17.764 217.003,15.446 217.003,11.461 M215.224,11.461 C215.224,14.364 213.199,16.310 210.813,16.310 L210.813,16.293 C208.356,16.310 206.378,14.364 206.378,11.461 C206.378,8.566 208.356,6.627 210.813,6.627 C213.199,6.627 215.224,8.566 215.224,11.461 M213.669,14.844 L211.967,11.878 C212.852,11.811 213.574,11.364 213.574,10.109 C213.574,8.566 212.562,8.060 210.840,8.060 L208.356,8.060 L208.356,14.844 L209.780,14.844 L209.780,11.995 L210.452,11.995 L211.980,14.844 L213.669,14.844 ZM211.039,10.846 L209.780,10.846 L209.780,9.207 L210.776,9.207 C211.323,9.207 212.055,9.264 212.055,9.965 C212.055,10.712 211.677,10.846 211.039,10.846 M207.978,25.774 C207.978,18.536 200.903,13.166 193.120,13.359 C188.988,13.462 185.173,15.062 182.561,17.631 C179.763,14.888 175.625,13.250 171.260,13.359 C163.693,13.549 157.188,18.742 157.188,25.774 L157.188,54.427 L164.222,54.427 L164.222,24.863 C164.003,21.058 167.162,17.798 171.260,17.598 C175.567,17.390 179.311,20.859 179.081,24.863 C179.058,25.157 179.047,25.467 179.047,25.774 L179.047,54.427 L186.119,54.427 L186.119,25.774 C186.119,25.467 186.105,25.164 186.082,24.863 C185.869,21.058 189.022,17.798 193.120,17.598 C197.426,17.390 201.166,20.859 200.940,24.863 L200.940,25.004 L200.940,54.427 L207.978,54.427 L207.978,25.774 ZM154.045,43.534 L154.045,27.754 L154.022,26.746 C154.022,19.503 146.954,14.141 139.166,14.330 C131.599,14.525 125.281,19.710 125.287,26.746 L125.287,42.586 L125.287,43.534 C125.287,50.769 132.355,56.139 140.153,55.949 C147.713,55.755 154.053,50.562 154.045,43.534 M147.180,45.262 C146.937,48.707 143.947,51.516 140.153,51.707 C135.832,51.923 131.910,48.447 132.136,44.440 L132.136,25.021 C132.379,21.573 135.366,18.762 139.166,18.572 C143.480,18.355 147.402,21.837 147.180,25.831 L147.180,45.262 ZM122.999,43.310 L122.999,40.958 L115.958,40.958 L115.958,45.031 C115.715,48.472 112.731,51.286 108.927,51.480 C104.614,51.700 100.684,48.215 100.910,44.214 L100.910,24.793 C101.153,21.348 104.147,18.536 107.942,18.346 C112.262,18.128 116.018,21.609 115.789,25.608 L115.789,28.782 L122.728,28.782 L122.803,26.518 C122.803,19.277 115.735,13.912 107.942,14.107 C100.377,14.296 94.105,19.487 94.109,26.518 L94.109,42.358 L94.068,43.310 C94.068,50.545 101.136,55.912 108.927,55.716 C116.491,55.532 123.005,50.335 122.999,43.310 M82.906,54.427 L89.944,54.427 L89.944,14.838 L82.906,14.838 L82.906,54.427 ZM76.432,47.001 L76.432,15.926 L76.432,15.658 C76.432,15.192 76.432,14.321 75.524,14.321 C74.981,14.321 74.434,14.727 73.982,14.994 C71.808,16.259 67.642,17.594 64.915,17.862 C63.917,17.925 62.563,17.995 62.563,18.993 C62.563,20.859 68.274,17.727 68.274,23.461 L68.274,24.333 L68.274,50.139 C68.274,55.738 67.457,59.003 62.201,63.207 C61.837,63.409 61.567,63.675 61.384,64.012 C61.384,64.479 61.472,65.010 62.383,65.010 C64.014,64.876 66.002,63.475 67.096,62.740 C73.529,58.542 76.432,53.271 76.432,47.001 M76.432,6.391 C76.247,4.592 74.711,2.990 72.082,2.990 C69.539,2.990 67.818,4.922 67.818,6.658 C67.818,8.724 69.087,10.797 72.259,10.797 C75.433,10.723 76.432,8.323 76.432,6.391 M59.299,43.491 L59.299,18.468 L59.299,14.838 L52.257,14.838 L52.257,18.468 L52.257,44.401 C52.477,48.205 49.318,51.460 45.223,51.667 C40.917,51.873 37.180,48.406 37.399,44.401 L37.399,44.258 L37.399,14.838 L30.365,14.838 L30.365,43.491 C30.365,50.730 37.432,56.099 45.223,55.899 C52.787,55.716 59.299,50.522 59.299,43.491 M10.031,19.196 L26.456,19.196 L26.456,14.831 L2.996,14.831 L2.996,54.427 L10.031,54.427 L10.031,35.177 L23.323,35.177 L23.323,30.818 L10.031,30.818 L10.031,19.196 Z" class="cls-1"></path></svg> 